<?xml version="1.0" encoding="utf-8"?>
<svg viewBox="-23.051 107.435 675.556 99.321" width="675.556px" height="99.321px" xmlns="http://www.w3.org/2000/svg">
  <g transform="matrix(1, 0, 0, 1, -0.000015, 0)">
    <path d="M 1.08 107.435 L 1.08 148.905 L -8.53 148.905 L -23.051 140.625 L -23.051 115.715 L -8.53 107.435 L 1.08 107.435 Z M 20.965 115.715 L 4.907 115.715 L 4.907 107.435 L 30.628 107.435 L 45.096 115.715 L 45.096 124.065 L 20.965 124.065 L 20.965 115.715 Z M 30.628 148.905 L 4.907 148.905 L 4.907 140.625 L 20.965 140.625 L 20.965 134.565 L 45.096 134.565 L 45.096 140.625 L 30.628 148.905 Z M 79.168 115.845 L 79.168 140.465 L 88.237 140.465 L 88.237 148.905 L 69.662 148.905 L 54.984 140.625 L 54.984 115.715 L 69.662 107.435 L 88.237 107.435 L 88.237 115.845 L 79.168 115.845 Z M 101.289 140.465 L 101.289 115.845 L 92.063 115.845 L 92.063 107.435 L 110.795 107.435 L 125.421 115.715 L 125.421 140.625 L 110.795 148.905 L 92.063 148.905 L 92.063 140.465 L 101.289 140.465 Z" style="fill: rgb(122, 139, 101); white-space: pre;"/>
    <path d="M 179.583 148.905 L 136.616 107.435 L 162.285 107.435 L 181.715 125.875 L 197.005 110.875 L 197.005 131.745 L 179.583 148.905 Z M 224.683 148.905 L 200.552 148.905 L 200.552 107.435 L 224.683 107.435 L 224.683 148.905 Z M 159.104 148.905 L 136.563 148.905 L 136.563 111.275 L 159.104 132.935 L 159.104 148.905 Z M 280.49 148.905 L 237.522 107.435 L 263.191 107.435 L 282.622 125.875 L 297.911 110.875 L 297.911 131.745 L 280.49 148.905 Z M 325.589 148.905 L 301.458 148.905 L 301.458 107.435 L 325.589 107.435 L 325.589 148.905 Z M 260.011 148.905 L 237.47 148.905 L 237.47 111.275 L 260.011 132.935 L 260.011 148.905 Z" style="fill: rgb(66, 79, 53); white-space: pre;"/>
    <path d="M 388.998 148.905 L 385.94 144.375 L 362.228 144.375 L 367.261 136.155 L 380.366 136.155 L 360.97 107.435 L 384.507 107.435 L 413.391 148.905 L 388.998 148.905 Z M 369.06 125.775 L 355.798 148.905 L 332.471 148.905 L 358.349 109.315 L 369.06 125.775 Z M 445.775 107.435 L 489.843 148.905 L 464.174 148.905 L 420.281 107.435 L 445.775 107.435 Z M 441.301 148.905 L 420.281 148.905 L 420.281 111.375 L 441.301 131.095 L 441.301 148.905 Z M 468.822 107.435 L 489.843 107.435 L 489.843 144.965 L 468.822 125.155 L 468.822 107.435 Z" style="fill: rgb(37, 49, 47); white-space: pre;"/>
    <path d="M 558.155 148.905 L 530.581 148.905 L 530.581 140.625 L 548.492 140.625 L 548.492 115.715 L 530.581 115.715 L 530.581 107.435 L 558.155 107.435 L 572.675 115.715 L 572.675 140.625 L 558.155 148.905 Z M 502.623 148.905 L 502.623 107.435 L 526.754 107.435 L 526.754 148.905 L 502.623 148.905 Z M 606.252 115.845 L 606.252 140.465 L 615.321 140.465 L 615.321 148.905 L 596.747 148.905 L 582.069 140.625 L 582.069 115.715 L 596.747 107.435 L 615.321 107.435 L 615.321 115.845 L 606.252 115.845 Z M 628.374 140.465 L 628.374 115.845 L 619.148 115.845 L 619.148 107.435 L 637.88 107.435 L 652.505 115.715 L 652.505 140.625 L 637.88 148.905 L 619.148 148.905 L 619.148 140.465 L 628.374 140.465 Z" style="fill: rgb(51, 51, 51); white-space: pre;"/>
  </g>
  <g transform="matrix(0.058346, 0, 0, 0.039019, 211.036484, 180.278046)" style="">
    <g>
      <g>
        <g>
          <path d="M 165.243 200.151 L 165.243 181.531 C 165.243 181.178 165.373 180.884 165.633 180.651 C 165.893 180.418 166.21 180.301 166.583 180.301 L 179.073 180.301 C 179.073 181.088 178.916 181.668 178.603 182.041 C 178.283 182.414 177.796 182.601 177.143 182.601 L 167.873 182.601 L 167.873 188.731 L 175.713 188.731 C 175.713 189.511 175.556 190.088 175.243 190.461 C 174.923 190.834 174.436 191.021 173.783 191.021 L 167.873 191.021 L 167.873 198.021 C 167.873 198.754 167.66 199.291 167.233 199.631 C 166.8 199.978 166.136 200.151 165.243 200.151 ZM 182.573 200.151 L 182.573 182.231 C 182.573 181.544 182.803 181.008 183.263 180.621 C 183.717 180.241 184.363 180.051 185.203 180.051 L 185.203 197.971 C 185.203 198.658 184.977 199.194 184.523 199.581 C 184.063 199.961 183.413 200.151 182.573 200.151 ZM 189.685 200.151 L 189.685 181.531 C 189.685 181.178 189.811 180.884 190.065 180.651 C 190.318 180.418 190.638 180.301 191.025 180.301 L 198.755 180.301 C 200.568 180.301 202.011 180.828 203.085 181.881 C 204.158 182.934 204.695 184.341 204.695 186.101 C 204.695 188.301 203.731 189.858 201.805 190.771 L 201.805 190.861 C 202.645 191.214 203.291 191.751 203.745 192.471 C 204.191 193.184 204.415 194.054 204.415 195.081 L 204.415 197.971 C 204.415 198.678 204.191 199.218 203.745 199.591 C 203.291 199.964 202.638 200.151 201.785 200.151 L 201.785 195.251 C 201.785 194.151 201.535 193.318 201.035 192.751 C 200.541 192.178 199.811 191.891 198.845 191.891 L 192.285 191.891 L 192.285 197.971 C 192.285 198.678 192.068 199.218 191.635 199.591 C 191.195 199.964 190.545 200.151 189.685 200.151 Z M 192.285 189.621 L 198.675 189.621 C 199.701 189.621 200.518 189.304 201.125 188.671 C 201.731 188.038 202.035 187.171 202.035 186.071 C 202.035 184.951 201.745 184.091 201.165 183.491 C 200.585 182.898 199.755 182.601 198.675 182.601 L 192.285 182.601 L 192.285 189.621 ZM 208.331 198.671 L 208.331 181.531 C 208.331 181.178 208.461 180.884 208.721 180.651 C 208.981 180.418 209.298 180.301 209.671 180.301 L 222.081 180.301 C 222.081 181.088 221.921 181.668 221.601 182.041 C 221.288 182.414 220.794 182.601 220.121 182.601 L 210.961 182.601 L 210.961 188.871 L 218.801 188.871 C 218.801 189.651 218.644 190.228 218.331 190.601 C 218.011 190.974 217.524 191.161 216.871 191.161 L 210.961 191.161 L 210.961 197.601 L 220.711 197.601 C 221.364 197.601 221.848 197.788 222.161 198.161 C 222.481 198.534 222.641 199.114 222.641 199.901 L 209.671 199.901 C 209.298 199.901 208.981 199.784 208.721 199.551 C 208.461 199.318 208.331 199.024 208.331 198.671 ZM 254.051 186.211 L 255.001 181.501 C 255.134 180.941 255.404 180.521 255.811 180.241 C 256.224 179.961 256.804 179.821 257.551 179.821 C 257.791 179.821 257.977 179.831 258.111 179.851 L 256.541 184.611 C 256.187 185.751 255.357 186.284 254.051 186.211 ZM 261.33 198.671 L 261.33 181.531 C 261.33 181.178 261.46 180.884 261.72 180.651 C 261.98 180.418 262.297 180.301 262.67 180.301 L 275.08 180.301 C 275.08 181.088 274.92 181.668 274.6 182.041 C 274.287 182.414 273.793 182.601 273.12 182.601 L 263.96 182.601 L 263.96 188.871 L 271.8 188.871 C 271.8 189.651 271.643 190.228 271.33 190.601 C 271.01 190.974 270.523 191.161 269.87 191.161 L 263.96 191.161 L 263.96 197.601 L 273.71 197.601 C 274.363 197.601 274.847 197.788 275.16 198.161 C 275.48 198.534 275.64 199.114 275.64 199.901 L 262.67 199.901 C 262.297 199.901 261.98 199.784 261.72 199.551 C 261.46 199.318 261.33 199.024 261.33 198.671 ZM 278.856 200.151 L 278.856 182.231 C 278.856 181.544 279.09 181.008 279.556 180.621 C 280.023 180.241 280.666 180.051 281.486 180.051 L 288.266 196.321 L 287.736 197.631 L 287.926 197.721 L 295.096 180.051 C 295.916 180.051 296.566 180.248 297.046 180.641 C 297.52 181.028 297.756 181.568 297.756 182.261 L 297.756 200.151 C 296.023 200.151 295.156 199.434 295.156 198.001 L 295.156 186.211 L 295.876 184.281 L 295.656 184.221 L 289.416 199.401 C 289.323 199.621 289.173 199.801 288.966 199.941 C 288.76 200.081 288.543 200.151 288.316 200.151 C 288.076 200.151 287.853 200.088 287.646 199.961 C 287.44 199.828 287.29 199.641 287.196 199.401 L 280.956 184.191 L 280.736 184.281 L 281.456 186.181 L 281.456 198.001 C 281.456 198.708 281.24 199.244 280.806 199.611 C 280.366 199.971 279.716 200.151 278.856 200.151 ZM 338.378 200.151 C 336.811 200.151 335.411 199.858 334.178 199.271 C 332.944 198.684 331.988 197.864 331.308 196.811 C 330.628 195.751 330.288 194.551 330.288 193.211 L 330.288 186.941 C 330.288 185.594 330.628 184.398 331.308 183.351 C 331.988 182.304 332.934 181.494 334.148 180.921 C 335.361 180.341 336.754 180.051 338.328 180.051 C 339.894 180.051 341.284 180.298 342.498 180.791 C 343.711 181.284 344.658 181.971 345.338 182.851 C 346.018 183.724 346.358 184.731 346.358 185.871 C 346.358 186.431 346.171 186.871 345.798 187.191 C 345.424 187.504 344.931 187.661 344.318 187.661 C 344.184 187.661 343.988 187.644 343.728 187.611 C 343.768 187.384 343.788 187.028 343.788 186.541 C 343.788 185.741 343.558 185.024 343.098 184.391 C 342.638 183.758 341.994 183.261 341.168 182.901 C 340.334 182.548 339.388 182.371 338.328 182.371 C 337.281 182.371 336.348 182.564 335.528 182.951 C 334.701 183.331 334.061 183.871 333.608 184.571 C 333.148 185.271 332.918 186.061 332.918 186.941 L 332.918 193.211 C 332.918 194.104 333.148 194.901 333.608 195.601 C 334.061 196.301 334.704 196.848 335.538 197.241 C 336.371 197.634 337.318 197.831 338.378 197.831 C 339.464 197.831 340.428 197.654 341.268 197.301 C 342.108 196.941 342.761 196.451 343.228 195.831 C 343.694 195.204 343.928 194.481 343.928 193.661 C 343.928 193.361 343.908 193.004 343.868 192.591 C 344.128 192.558 344.314 192.541 344.428 192.541 C 345.041 192.541 345.541 192.718 345.928 193.071 C 346.308 193.424 346.498 193.901 346.498 194.501 C 346.498 195.601 346.154 196.581 345.468 197.441 C 344.774 198.294 343.818 198.961 342.598 199.441 C 341.371 199.914 339.964 200.151 338.378 200.151 ZM 357.078 200.151 C 355.531 200.151 354.148 199.848 352.928 199.241 C 351.701 198.634 350.744 197.794 350.058 196.721 C 349.364 195.648 349.018 194.458 349.018 193.151 L 349.018 186.991 C 349.018 185.684 349.364 184.504 350.058 183.451 C 350.744 182.398 351.701 181.568 352.928 180.961 C 354.148 180.354 355.531 180.051 357.078 180.051 C 358.651 180.051 360.048 180.354 361.268 180.961 C 362.488 181.568 363.444 182.398 364.138 183.451 C 364.831 184.504 365.178 185.684 365.178 186.991 L 365.178 193.151 C 365.178 194.458 364.831 195.648 364.138 196.721 C 363.444 197.794 362.484 198.634 361.258 199.241 C 360.024 199.848 358.631 200.151 357.078 200.151 Z M 357.078 197.861 C 358.818 197.861 360.171 197.431 361.138 196.571 C 362.111 195.711 362.598 194.561 362.598 193.121 L 362.598 187.051 C 362.598 185.611 362.111 184.468 361.138 183.621 C 360.171 182.768 358.818 182.341 357.078 182.341 C 355.364 182.341 354.021 182.768 353.048 183.621 C 352.081 184.468 351.598 185.611 351.598 187.051 L 351.598 193.121 C 351.598 194.561 352.081 195.711 353.048 196.571 C 354.021 197.431 355.364 197.861 357.078 197.861 ZM 368.392 200.151 L 368.392 182.231 C 368.392 181.544 368.625 181.008 369.092 180.621 C 369.559 180.241 370.202 180.051 371.022 180.051 L 377.802 196.321 L 377.272 197.631 L 377.462 197.721 L 384.632 180.051 C 385.452 180.051 386.102 180.248 386.582 180.641 C 387.055 181.028 387.292 181.568 387.292 182.261 L 387.292 200.151 C 385.559 200.151 384.692 199.434 384.692 198.001 L 384.692 186.211 L 385.412 184.281 L 385.192 184.221 L 378.952 199.401 C 378.859 199.621 378.709 199.801 378.502 199.941 C 378.295 200.081 378.079 200.151 377.852 200.151 C 377.612 200.151 377.389 200.088 377.182 199.961 C 376.975 199.828 376.825 199.641 376.732 199.401 L 370.492 184.191 L 370.272 184.281 L 370.992 186.181 L 370.992 198.001 C 370.992 198.708 370.775 199.244 370.342 199.611 C 369.902 199.971 369.252 200.151 368.392 200.151 ZM 391.21 200.151 L 391.21 182.231 C 391.21 181.544 391.443 181.008 391.91 180.621 C 392.377 180.241 393.02 180.051 393.84 180.051 L 400.62 196.321 L 400.09 197.631 L 400.28 197.721 L 407.45 180.051 C 408.27 180.051 408.92 180.248 409.4 180.641 C 409.873 181.028 410.11 181.568 410.11 182.261 L 410.11 200.151 C 408.377 200.151 407.51 199.434 407.51 198.001 L 407.51 186.211 L 408.23 184.281 L 408.01 184.221 L 401.77 199.401 C 401.677 199.621 401.527 199.801 401.32 199.941 C 401.113 200.081 400.897 200.151 400.67 200.151 C 400.43 200.151 400.207 200.088 400 199.961 C 399.793 199.828 399.643 199.641 399.55 199.401 L 393.31 184.191 L 393.09 184.281 L 393.81 186.181 L 393.81 198.001 C 393.81 198.708 393.593 199.244 393.16 199.611 C 392.72 199.971 392.07 200.151 391.21 200.151 ZM 415.118 200.151 C 414.558 200.038 414.121 199.801 413.808 199.441 C 413.488 199.074 413.328 198.631 413.328 198.111 C 413.328 197.758 413.411 197.384 413.578 196.991 L 420.268 180.891 C 420.494 180.331 420.924 180.051 421.558 180.051 C 422.158 180.051 422.578 180.331 422.818 180.891 L 429.508 196.991 C 429.681 197.384 429.768 197.758 429.768 198.111 C 429.768 198.611 429.608 199.048 429.288 199.421 C 428.968 199.794 428.528 200.038 427.968 200.151 L 425.568 194.301 L 417.528 194.301 L 415.118 200.151 Z M 418.338 192.031 L 424.748 192.031 L 421.138 182.881 L 420.918 182.961 L 421.418 184.251 L 418.338 192.031 ZM 432.982 200.151 L 432.982 182.321 C 432.982 181.608 433.202 181.051 433.642 180.651 C 434.082 180.251 434.692 180.051 435.472 180.051 L 446.342 196.571 L 446.532 196.401 L 445.722 195.061 L 445.722 180.051 C 446.582 180.051 447.232 180.238 447.672 180.611 C 448.105 180.984 448.322 181.524 448.322 182.231 L 448.322 198.081 C 448.322 198.681 448.112 199.174 447.692 199.561 C 447.272 199.954 446.735 200.151 446.082 200.151 L 434.972 183.271 L 434.772 183.441 L 435.582 184.781 L 435.582 197.971 C 435.582 198.678 435.365 199.218 434.932 199.591 C 434.492 199.964 433.842 200.151 432.982 200.151 ZM 453.584 199.901 C 453.211 199.901 452.894 199.784 452.634 199.551 C 452.374 199.318 452.244 199.024 452.244 198.671 L 452.244 181.531 C 452.244 181.178 452.371 180.884 452.624 180.651 C 452.878 180.418 453.198 180.301 453.584 180.301 L 460.144 180.301 C 461.731 180.301 463.131 180.601 464.344 181.201 C 465.558 181.794 466.504 182.628 467.184 183.701 C 467.864 184.774 468.204 186.001 468.204 187.381 L 468.204 192.761 C 468.204 194.141 467.864 195.374 467.184 196.461 C 466.504 197.541 465.551 198.384 464.324 198.991 C 463.104 199.598 461.711 199.901 460.144 199.901 L 453.584 199.901 Z M 454.874 197.601 L 459.864 197.601 C 461.651 197.601 463.051 197.178 464.064 196.331 C 465.071 195.484 465.574 194.304 465.574 192.791 L 465.574 187.361 C 465.574 185.868 465.071 184.701 464.064 183.861 C 463.051 183.021 461.651 182.601 459.864 182.601 L 454.874 182.601 L 454.874 197.601 ZM 478.842 200.151 C 477.276 200.151 475.919 199.928 474.772 199.481 C 473.619 199.034 472.746 198.438 472.152 197.691 C 471.552 196.944 471.252 196.141 471.252 195.281 C 471.252 194.574 471.439 194.028 471.812 193.641 C 472.186 193.261 472.756 193.071 473.522 193.071 C 473.522 194.658 473.999 195.864 474.952 196.691 C 475.906 197.524 477.239 197.941 478.952 197.941 C 480.599 197.941 481.859 197.664 482.732 197.111 C 483.612 196.564 484.052 195.748 484.052 194.661 C 484.052 194.008 483.889 193.471 483.562 193.051 C 483.236 192.631 482.686 192.268 481.912 191.961 C 481.132 191.654 480.016 191.341 478.562 191.021 C 476.842 190.648 475.479 190.214 474.472 189.721 C 473.466 189.228 472.729 188.628 472.262 187.921 C 471.796 187.208 471.562 186.328 471.562 185.281 C 471.562 184.241 471.856 183.324 472.442 182.531 C 473.029 181.738 473.866 181.124 474.952 180.691 C 476.032 180.264 477.292 180.051 478.732 180.051 C 480.092 180.051 481.309 180.241 482.382 180.621 C 483.456 181.008 484.296 181.551 484.902 182.251 C 485.509 182.951 485.812 183.738 485.812 184.611 C 485.812 185.151 485.639 185.578 485.292 185.891 C 484.952 186.198 484.416 186.351 483.682 186.351 C 483.482 184.931 482.986 183.894 482.192 183.241 C 481.399 182.588 480.246 182.261 478.732 182.261 C 477.272 182.261 476.152 182.518 475.372 183.031 C 474.586 183.544 474.192 184.268 474.192 185.201 C 474.192 185.854 474.339 186.391 474.632 186.811 C 474.919 187.231 475.412 187.591 476.112 187.891 C 476.812 188.191 477.796 188.481 479.062 188.761 C 480.969 189.168 482.469 189.624 483.562 190.131 C 484.656 190.631 485.442 191.248 485.922 191.981 C 486.409 192.708 486.652 193.601 486.652 194.661 C 486.652 196.361 485.942 197.701 484.522 198.681 C 483.109 199.661 481.216 200.151 478.842 200.151 Z" transform="matrix(17.13913345336914, 0, 0, 25.6285400390625, -3818.421630859375, -4622.10205078125)" style="fill: rgb(51, 51, 51); white-space: pre;"/>
          <polygon points="285.374 191.068 285.374 151.082 218.227 151.082 218.227 191.068 204.646 218.23 298.955 218.23" style="fill: rgb(66, 79, 53);"/>
          <rect x="201.441" y="235.015" width="100.721" height="184.656" style="fill: rgb(66, 79, 53);"/>
          <path d="M 270.558 41.682 L 259.84 5.985 C 258.774 2.434 255.509 0 251.799 0 C 248.097 0 244.824 2.434 243.758 5.984 L 233.048 41.681 C 224.017 71.788 219.283 102.911 218.536 134.294 L 285.071 134.294 C 284.323 102.912 279.589 71.789 270.558 41.682 Z" style="fill: rgb(66, 79, 53);"/>
          <path d="M 294.703 458.164 C 294.963 457.476 295.24 456.796 295.416 456.074 L 300.318 436.459 L 203.281 436.459 L 208.174 456.074 C 208.359 456.796 208.627 457.476 208.896 458.164 C 204.38 461.958 201.443 467.581 201.443 473.927 L 201.443 482.925 C 201.443 494.332 210.718 503.606 222.124 503.606 L 281.482 503.606 C 292.88 503.606 302.163 494.331 302.163 482.925 L 302.163 473.927 C 302.165 467.581 299.228 461.957 294.703 458.164 Z" style="fill: rgb(66, 79, 53);"/>
          <g transform="matrix(1, 0, 0, 1, 1281.82312, 0)" style="">
            <g>
              <g>
                <polygon points="285.374,191.068 285.374,151.082 218.227,151.082 218.227,191.068 204.646,218.23 298.955,218.23 &#9;&#9;&#9;" style="fill: rgb(66, 79, 53);"/>
                <rect x="201.441" y="235.015" width="100.721" height="184.656" style="fill: rgb(66, 79, 53);"/>
                <path d="M270.558,41.682L259.84,5.985C258.774,2.434,255.509,0,251.799,0c-3.702,0-6.975,2.434-8.041,5.984l-10.71,35.697 c-9.031,30.107-13.765,61.23-14.512,92.613h66.535C284.323,102.912,279.589,71.789,270.558,41.682z" style="fill: rgb(66, 79, 53);"/>
                <path d="M294.703,458.164c0.26-0.688,0.537-1.368,0.713-2.09l4.902-19.615h-97.037l4.893,19.615 c0.185,0.722,0.453,1.402,0.722,2.09c-4.516,3.794-7.453,9.417-7.453,15.763v8.998c0,11.407,9.275,20.681,20.681,20.681h59.358 c11.398,0,20.681-9.275,20.681-20.681v-8.998C302.165,467.581,299.228,461.957,294.703,458.164z" style="fill: rgb(66, 79, 53);"/>
              </g>
            </g>
          </g>
        </g>
      </g>
    </g>
  </g>
</svg>