<?xml version="1.0" encoding="utf-8"?>
<svg viewBox="-28.097 90.413 685.648 79.984" width="685.648" height="79.984" xmlns="http://www.w3.org/2000/svg">
  <path d="M 145.164 69.491 L 145.164 110.961 L 139.664 110.961 L 131.354 102.681 L 131.354 77.771 L 139.664 69.491 L 145.164 69.491 Z M 156.544 77.771 L 147.354 77.771 L 147.354 69.491 L 162.074 69.491 L 170.354 77.771 L 170.354 86.121 L 156.544 86.121 L 156.544 77.771 Z M 162.074 110.961 L 147.354 110.961 L 147.354 102.681 L 156.544 102.681 L 156.544 96.621 L 170.354 96.621 L 170.354 102.681 L 162.074 110.961 ZM 189.853 77.901 L 189.853 102.521 L 195.043 102.521 L 195.043 110.961 L 184.413 110.961 L 176.013 102.681 L 176.013 77.771 L 184.413 69.491 L 195.043 69.491 L 195.043 77.901 L 189.853 77.901 Z M 202.513 102.521 L 202.513 77.901 L 197.233 77.901 L 197.233 69.491 L 207.953 69.491 L 216.323 77.771 L 216.323 102.681 L 207.953 110.961 L 197.233 110.961 L 197.233 102.521 L 202.513 102.521 Z" transform="matrix(1.7473610639572144, 0, 0, 1, -252.305419921875, 37.94399642944336)" style="fill: rgb(122, 139, 101); white-space: pre;"/>
  <path d="M 247.32 110.961 L 222.73 69.491 L 237.42 69.491 L 248.54 87.931 L 257.29 72.931 L 257.29 93.801 L 247.32 110.961 Z M 273.13 110.961 L 259.32 110.961 L 259.32 69.491 L 273.13 69.491 L 273.13 110.961 Z M 235.6 110.961 L 222.7 110.961 L 222.7 73.331 L 235.6 94.991 L 235.6 110.961 ZM 305.068 110.961 L 280.478 69.491 L 295.168 69.491 L 306.288 87.931 L 315.038 72.931 L 315.038 93.801 L 305.068 110.961 Z M 330.878 110.961 L 317.068 110.961 L 317.068 69.491 L 330.878 69.491 L 330.878 110.961 Z M 293.348 110.961 L 280.448 110.961 L 280.448 73.331 L 293.348 94.991 L 293.348 110.961 Z" transform="matrix(1.7473610639572144, 0, 0, 1, -252.305419921875, 37.94399642944336)" style="fill: rgb(66, 79, 53); white-space: pre;"/>
  <path d="M 367.166 110.961 L 365.416 106.431 L 351.846 106.431 L 354.726 98.211 L 362.226 98.211 L 351.126 69.491 L 364.596 69.491 L 381.126 110.961 L 367.166 110.961 Z M 355.756 87.831 L 348.166 110.961 L 334.816 110.961 L 349.626 71.371 L 355.756 87.831 ZM 399.659 69.491 L 424.879 110.961 L 410.189 110.961 L 385.069 69.491 L 399.659 69.491 Z M 397.099 110.961 L 385.069 110.961 L 385.069 73.431 L 397.099 93.151 L 397.099 110.961 Z M 412.849 69.491 L 424.879 69.491 L 424.879 107.021 L 412.849 87.211 L 412.849 69.491 Z" transform="matrix(1.7473610639572144, 0, 0, 1, -252.305419921875, 37.94399642944336)" style="fill: rgb(37, 49, 47); white-space: pre;"/>
  <path d="M 463.973 110.961 L 448.193 110.961 L 448.193 102.681 L 458.443 102.681 L 458.443 77.771 L 448.193 77.771 L 448.193 69.491 L 463.973 69.491 L 472.283 77.771 L 472.283 102.681 L 463.973 110.961 Z M 432.193 110.961 L 432.193 69.491 L 446.003 69.491 L 446.003 110.961 L 432.193 110.961 ZM 491.499 77.901 L 491.499 102.521 L 496.689 102.521 L 496.689 110.961 L 486.059 110.961 L 477.659 102.681 L 477.659 77.771 L 486.059 69.491 L 496.689 69.491 L 496.689 77.901 L 491.499 77.901 Z M 504.159 102.521 L 504.159 77.901 L 498.879 77.901 L 498.879 69.491 L 509.599 69.491 L 517.969 77.771 L 517.969 102.681 L 509.599 110.961 L 498.879 110.961 L 498.879 102.521 L 504.159 102.521 Z" transform="matrix(1.7473610639572144, 0, 0, 1, -252.305419921875, 37.94399642944336)" style="fill: rgb(51, 51, 51); white-space: pre;"/>
</svg>